<svg xmlns="http://www.w3.org/2000/svg" xmlns:xlink="http://www.w3.org/1999/xlink" viewBox="0 0 320 319.9"><defs><style>.cls-1{fill:url(#New_Gradient_Swatch_1);}.cls-2{fill:#fff;}.cls-3{fill:#0f0f0d;}.cls-4{fill:#0d0d0b;}.cls-5{fill:#faa629;}</style><linearGradient id="New_Gradient_Swatch_1" x1="267.45" y1="-26.22" x2="52.47" y2="346.13" gradientUnits="userSpaceOnUse"><stop offset="0.02" stop-color="#600f40"/><stop offset="0.53" stop-color="#763b58"/><stop offset="0.86" stop-color="#7f4962"/></linearGradient></defs><title>Asset 5</title><g id="Layer_2" data-name="Layer 2"><g id="Layer_1-2" data-name="Layer 1"><path class="cls-1" d="M310.3,319.9H9.6A9.63,9.63,0,0,1,0,310.3V9.6A9.63,9.63,0,0,1,9.6,0H310.3A9.78,9.78,0,0,1,320,9.6V310.3A9.78,9.78,0,0,1,310.3,319.9Z"/><path class="cls-2" d="M37.42,131.42l-6.36,8c-.36.45-.73.88-1.1,1.32s-.84.78-1.43.22a1,1,0,0,1,0-1.52l10.26-12.87c.18-.22.37-.51.68-.43s.42.5.45.84,0,.91,0,1.37q0,15.43,0,30.87a5.36,5.36,0,0,1,0,.69c-.1.79.23,1.94-1.08,1.92s-1-1.18-1-2q0-13.2,0-26.41,0-.94,0-1.87Z"/><path class="cls-2" d="M95.45,145a17.75,17.75,0,0,1,12.95-17.19c.71-.2,1.76-1,2.15.36s-.69,1.35-1.52,1.6c-7.18,2.21-11.45,7.91-11.45,15.27s4.24,13,11.48,15.23l.5.13c.76.21,1.23.67,1,1.5s-.93.64-1.54.5a17,17,0,0,1-6.74-3.26A17.6,17.6,0,0,1,95.45,145Z"/><path class="cls-2" d="M68.84,163a17.69,17.69,0,0,1-17-11.73c-.26-.7-1.06-1.69.18-2.16,1.09-.42,1.43.56,1.74,1.39a16.16,16.16,0,0,0,30.25.08c.1-.27.2-.53.31-.8a1.17,1.17,0,0,1,1.55-.7c.82.25.5.93.34,1.44A17.77,17.77,0,0,1,68.84,163Z"/><path class="cls-2" d="M68.87,127c7.74.31,13.47,3.72,16.75,10.91a10.76,10.76,0,0,1,.61,1.78c.12.48.34,1.08-.39,1.27a1.14,1.14,0,0,1-1.46-.56c-.17-.36-.31-.74-.45-1.11a16.17,16.17,0,0,0-30.14.08l-.31.8a1.15,1.15,0,0,1-1.5.78c-.94-.26-.59-1-.41-1.55A18.07,18.07,0,0,1,68.87,127Z"/><path class="cls-2" d="M185,143.59c0-5.43,0-10.85,0-16.28,0-.48-.26-1.19.33-1.37s.75.57,1,.94a3.43,3.43,0,0,1,.73,2.24q0,15.51,0,31a5.18,5.18,0,0,1-.07.85.93.93,0,0,1-1,.9.91.91,0,0,1-.95-1c0-1-.05-1.94-.05-2.91Q185,150.79,185,143.59Z"/><path class="cls-2" d="M10,143.78c0-5.38,0-10.75,0-16.13,0-.52-.28-1.33.43-1.49s.87.64,1.19,1.08a3.41,3.41,0,0,1,.48,2.14q0,15.27,0,30.54a7,7,0,0,1-.07,1c-.08.57-.36.95-1,.94a.91.91,0,0,1-1-1c0-.68-.06-1.37-.06-2.06Q10,151.32,10,143.78Z"/><path class="cls-2" d="M235,145.45H232c-.7,0-1.27-.18-1.23-1s.57-.91,1.19-.91c1.54,0,3.08,0,4.62,0,4.21-.06,7.2-3,7.17-6.9,0-3.71-3-6.48-7.14-6.55-1.54,0-3.08,0-4.62,0-.7,0-1.26-.19-1.22-1.05s.58-.9,1.2-.9c2.11,0,4.24-.13,6.33.06a8.72,8.72,0,0,1-.65,17.34C236.75,145.48,235.89,145.45,235,145.45Z"/><path class="cls-2" d="M141.19,145q0,7.2,0,14.41a12.6,12.6,0,0,1-.1,1.71.86.86,0,0,1-1,.78.87.87,0,0,1-1-.78,9.74,9.74,0,0,1-.1-1.54q0-14.58,0-29.16a11.48,11.48,0,0,1,.07-1.37.93.93,0,0,1,1-1,.9.9,0,0,1,1,.95c.06.91.07,1.83.07,2.74Q141.2,138.38,141.19,145Z"/><path class="cls-2" d="M169.55,144.88q0-7.19,0-14.38c0-.51,0-1,.06-1.54a.86.86,0,0,1,.87-.87.92.92,0,0,1,1.1.83,12.07,12.07,0,0,1,.1,1.7c0,9.59,0,19.18,0,28.76,0,.91.49,2.4-1,2.43s-1-1.51-1-2.38C169.51,154.58,169.55,149.73,169.55,144.88Z"/><path class="cls-2" d="M208,145q0-7.29,0-14.58a11.14,11.14,0,0,1,.09-1.54.86.86,0,0,1,1-.78.87.87,0,0,1,1,.78,9.57,9.57,0,0,1,.11,1.54q0,14.58,0,29.17a10.89,10.89,0,0,1,0,1.2c-.07.61-.27,1.12-1,1.12s-1-.49-1-1.11c0-1,0-1.94,0-2.92Q208,151.42,208,145Z"/><path class="cls-2" d="M225.61,145q0,7.2,0,14.41a12.67,12.67,0,0,1-.1,1.71.86.86,0,0,1-1,.78.87.87,0,0,1-1-.78,9.72,9.72,0,0,1-.1-1.54q0-14.58,0-29.16a11.52,11.52,0,0,1,.07-1.37.93.93,0,0,1,1-1,.9.9,0,0,1,1,.95c.06.91.07,1.83.07,2.74Q225.62,138.38,225.61,145Z"/><path class="cls-2" d="M257.4,144.92q0-7.11,0-14.21c0-.46,0-.91,0-1.37,0-.68.18-1.27,1-1.25s1,.64,1,1.29c0,.4,0,.8,0,1.2q0,14.38,0,28.76c0,.34,0,.69,0,1-.06.68,0,1.45-1,1.5s-1.09-.8-1.1-1.54q0-7.7,0-15.41Z"/><path class="cls-2" d="M289.68,145q0-7.29,0-14.58a11.16,11.16,0,0,1,.09-1.54.86.86,0,0,1,1-.78.87.87,0,0,1,1,.78,9.57,9.57,0,0,1,.11,1.54q0,14.58,0,29.17a10.9,10.9,0,0,1,0,1.2c-.07.61-.27,1.12-1,1.12s-1-.49-1-1.11c0-1,0-1.94,0-2.92Q289.68,151.42,289.68,145Z"/><path class="cls-2" d="M235.34,161.91c-1.41,0-2.49,0-3.57,0-.68,0-1.08-.32-1-1.05s.46-.88,1-.88c1.71,0,3.43,0,5.14,0a6.56,6.56,0,0,0,4.61-11.52c-.4-.41-1.46-.66-.6-1.55s1.39-.4,2.07.19a8.56,8.56,0,0,1,0,12.61A9.46,9.46,0,0,1,235.34,161.91Z"/><path class="cls-2" d="M204.66,154.85c0,.37.13.9-.32,1.06s-.76-.41-1-.74q-3.78-5.41-7.51-10.85-2.33-3.39-4.65-6.78a5.73,5.73,0,0,1-.75-1.33c-.24-.7-.49-1.69.18-2.06s1,.62,1.39,1.11q5.91,8.52,11.76,17.08A3.63,3.63,0,0,1,204.66,154.85Z"/><path class="cls-2" d="M160,161.29c0,.61-.38.58-.72.63-1,.14-1.55-.55-2-1.27l-11.9-17.22c-.42-.61-1-1.28-.1-1.93s1.31.24,1.69.79q6.22,8.94,12.4,17.91C159.59,160.58,159.81,161,160,161.29Z"/><path class="cls-2" d="M15.49,134.28c0-.35-.05-.91.3-1.1s.47.31.64.61q3,5.25,6,10.5a1.6,1.6,0,0,1,0,1.82c-.5.74-.78,0-1-.46-1.85-3.23-3.69-6.48-5.52-9.72A3.28,3.28,0,0,1,15.49,134.28Z"/><path class="cls-2" d="M128.59,135.52a1.07,1.07,0,0,1-.77,1c-.63.27-1-.19-1.24-.62a15.76,15.76,0,0,0-7.36-5.68c-.74-.3-1.52-.49-2.28-.75a1,1,0,0,1-.7-1.37c.16-.67.69-.68,1.23-.55a17.59,17.59,0,0,1,10.79,7.35A4.64,4.64,0,0,1,128.59,135.52Z"/><path class="cls-2" d="M117.15,162.52a.75.75,0,0,1-.91-.58,1,1,0,0,1,.25-1.11,1.88,1.88,0,0,1,.75-.39,15.72,15.72,0,0,0,9.4-6.43.94.94,0,0,1,1.46-.32c.66.42.58.92.2,1.45a17.87,17.87,0,0,1-10.82,7.31Z"/><path class="cls-2" d="M159,128.76a10.48,10.48,0,0,1-.64.86c-2.72,3.07-5.44,6.15-8.19,9.19-.43.48-.88,1.46-1.76.64s-.25-1.32.28-1.92q3.75-4.22,7.47-8.45a2.37,2.37,0,0,1,2.21-1C158.75,128.11,159.12,128.13,159,128.76Z"/><path class="cls-2" d="M270.89,130h-5.14c-.69,0-1.3-.13-1.3-1s.61-1,1.3-1h10.62c.69,0,1.3.13,1.3,1s-.61,1-1.3,1Z"/><path class="cls-2" d="M303.32,130H298c-.69,0-1.29-.16-1.28-1s.65-1,1.32-1h10.62c.69,0,1.29.15,1.28,1s-.65,1-1.32,1Z"/><path class="cls-2" d="M271.06,146.14h-5.31c-.69,0-1.3-.13-1.3-1s.61-1,1.3-1h10.62c.69,0,1.3.13,1.3,1s-.61,1-1.3,1Z"/><path class="cls-2" d="M303.34,146.14H298c-.69,0-1.3-.14-1.29-1s.63-1,1.31-1h10.62c.69,0,1.3.14,1.29,1s-.63,1-1.31,1Z"/><path class="cls-2" d="M271.19,161.93c-1.37,0-2.75.1-4.11,0-.92-.09-2.57.74-2.56-1,0-1.57,1.58-.89,2.47-.92q4.11-.14,8.22,0c.87,0,2.41-.67,2.39,1,0,1.51-1.46.86-2.31.92C273.93,162,272.56,161.93,271.19,161.93Z"/><path class="cls-2" d="M303.47,160c1.66,0,3.31,0,5,0,.68,0,1.47-.06,1.51.94s-.7,1-1.42,1H298.08c-.66,0-1.32-.07-1.34-.94s.7-1,1.42-1Z"/><path class="cls-3" d="M72.58,146.3a15.87,15.87,0,0,1,.57,2.88,10.31,10.31,0,0,1-3.56,9c-.76.65-1,.63-1.76,0A10.73,10.73,0,0,1,64.64,147l.18-.69a7.5,7.5,0,0,1-2.69.54,6.54,6.54,0,0,1-5.59-3.67,1.38,1.38,0,0,1,0-1.49c1.81-3.38,5.56-4.64,8.63-2.86.4.23.55.29.72-.31a3,3,0,0,1,2.79-2.3,3,3,0,0,1,2.78,2.32c.16.56.3.52.68.29,3-1.8,6.67-.65,8.59,2.65a1.62,1.62,0,0,1,0,1.84c-1.69,2.9-4.75,4.19-7.6,3.15Zm-3.17-2-.3-.39c-.17-.18-.31-.48-.59-.25a6.32,6.32,0,0,0-1.6,2H70c.14,0,.29.1.45-.07-.34-.46-.56-1-1.07-1.3ZM70,154.55h-3.1A6.24,6.24,0,0,0,68,156.05c.74.76.81.75,1.42-.17.51-.27.72-.83,1.11-1.4ZM68.46,141.5a1.23,1.23,0,0,0,1.46-.75,1.86,1.86,0,0,0,0-1.79,1.3,1.3,0,0,0-1.51-.83,1.63,1.63,0,0,0-1.23,1.77A1.57,1.57,0,0,0,68.46,141.5Zm2.44,9.56-4.74,0c-.1,0-.26,0-.28.06a2.74,2.74,0,0,0,.14,1.29c0,.26.16.39.41.38,1.4,0,2.81,0,4.21,0,.68.26.77-.31.87-.88C71.69,151,71.69,150.95,70.91,151.05Zm-.26-3.55-4.23,0a.34.34,0,0,0-.38.33c-.06.34-.13.69-.2,1s.07.4.32.39l4.76,0c.23,0,.59.16.64-.07a2.56,2.56,0,0,0-.24-1.47C71.19,147.29,70.88,147.47,70.64,147.51Zm-8.42-7.68a5.07,5.07,0,0,0-4,2.3.51.51,0,0,0,0,.7,4.76,4.76,0,0,0,8.07,0,.61.61,0,0,0,0-.84A5.13,5.13,0,0,0,62.22,139.82Zm13,0a5.12,5.12,0,0,0-4,2.2.67.67,0,0,0,0,.95,4.74,4.74,0,0,0,8-.12.54.54,0,0,0,0-.76A5.11,5.11,0,0,0,75.17,139.79Z"/><path class="cls-4" d="M63.74,133.1c.49,0,2.21,2.05,2.23,2.63a.85.85,0,0,1-.38.81.57.57,0,0,1-.78-.06c-.58-.64-1.14-1.3-1.69-2a.89.89,0,0,1-.06-.92A.71.71,0,0,1,63.74,133.1Z"/><path class="cls-4" d="M71.39,135.78a1,1,0,0,1,.22-.72c.48-.56.94-1.14,1.43-1.69a.66.66,0,0,1,1.11,0,.93.93,0,0,1,0,1.25c-.48.59-1,1.17-1.47,1.75a.64.64,0,0,1-.87.19A.79.79,0,0,1,71.39,135.78Z"/><path class="cls-2" d="M62.22,139.82a5.13,5.13,0,0,1,4,2.21.61.61,0,0,1,0,.84,4.76,4.76,0,0,1-8.07,0,.51.51,0,0,1,0-.7A5.07,5.07,0,0,1,62.22,139.82Z"/><path class="cls-2" d="M75.17,139.79a5.11,5.11,0,0,1,4,2.26.54.54,0,0,1,0,.76,4.74,4.74,0,0,1-8,.12.67.67,0,0,1,0-.95A5.12,5.12,0,0,1,75.17,139.79Z"/><path class="cls-5" d="M70.92,149.17l-4.76,0c-.25,0-.39-.05-.32-.39s.14-.68.2-1a.34.34,0,0,1,.38-.33l4.23,0Z"/><path class="cls-5" d="M70.65,152.71c-1.4,0-2.81,0-4.21,0-.25,0-.37-.12-.41-.38a2.74,2.74,0,0,1-.14-1.29c0-.05.18-.06.28-.06l4.74,0Z"/><path class="cls-5" d="M68.46,141.5a1.57,1.57,0,0,1-1.24-1.61,1.63,1.63,0,0,1,1.23-1.77A1.94,1.94,0,0,1,68.46,141.5Z"/><path class="cls-5" d="M69.46,155.89c-.62.92-.68.93-1.42.17a6.24,6.24,0,0,1-1.09-1.49H70Z"/><path class="cls-5" d="M70,145.67H66.92a6.32,6.32,0,0,1,1.6-2c.28-.23.42.06.59.25a.46.46,0,0,1,.3.39v0Z"/><path class="cls-2" d="M68.46,141.5a1.94,1.94,0,0,0,0-3.38,1.3,1.3,0,0,1,1.51.83,1.86,1.86,0,0,1,0,1.79A1.23,1.23,0,0,1,68.46,141.5Z"/><path class="cls-2" d="M70.92,149.17l-.27-1.67c.24,0,.54-.22.68.14a2.56,2.56,0,0,1,.24,1.47C71.5,149.34,71.14,149.2,70.92,149.17Z"/><path class="cls-2" d="M70.65,152.71l.26-1.66c.78-.11.78-.1.61.78C71.42,152.4,71.34,153,70.65,152.71Z"/><path class="cls-2" d="M70,145.67l-.62-1.37c.51.25.73.84,1.07,1.3C70.32,145.77,70.17,145.68,70,145.67Z"/><path class="cls-2" d="M69.46,155.89l.59-1.34.53-.06C70.18,155.06,70,155.62,69.46,155.89Z"/><path class="cls-2" d="M69.41,144.32a.46.46,0,0,0-.3-.39Z"/></g></g></svg>